<?xml version="1.0" encoding="UTF-8" standalone="no"?>
<svg width="22px" height="18px" viewBox="0 0 22 18" version="1.1" xmlns="http://www.w3.org/2000/svg" xmlns:xlink="http://www.w3.org/1999/xlink">
    <!-- Generator: Sketch 49.2 (51160) - http://www.bohemiancoding.com/sketch -->
    <title>icon-vimeo</title>
    <desc>Created with Sketch.</desc>
    <defs></defs>
    <g id="01_Home-Page" stroke="none" stroke-width="1" fill="none" fill-rule="evenodd">
        <g id="01-Homepage" transform="translate(-1222.000000, -1955.000000)" fill="#5E6E5E">
            <path d="M1243.98936,1959.16428 C1243.89146,1961.18991 1242.39567,1963.96366 1239.50243,1967.48407 C1236.51151,1971.1615 1233.98084,1973 1231.91062,1973 C1230.62868,1973 1229.54297,1971.88074 1228.6568,1969.64076 C1228.06456,1967.58771 1227.47298,1965.53487 1226.88073,1963.48202 C1226.22249,1961.24329 1225.5165,1960.12258 1224.76168,1960.12258 C1224.59712,1960.12258 1224.02115,1960.45011 1223.03511,1961.10268 L1222,1959.84136 C1223.08571,1958.93914 1224.15689,1958.03671 1225.2107,1957.13324 C1226.65875,1955.9496 1227.74578,1955.32714 1228.47024,1955.26441 C1230.18251,1955.10885 1231.23632,1956.21586 1231.63188,1958.58544 C1232.05912,1961.14215 1232.35503,1962.73246 1232.52135,1963.35491 C1233.01481,1965.47609 1233.55777,1966.53533 1234.15112,1966.53533 C1234.61158,1966.53533 1235.30327,1965.84724 1236.22551,1964.47147 C1237.14666,1963.0955 1237.64034,1962.04852 1237.70678,1961.32928 C1237.83812,1960.14189 1237.34444,1959.54643 1236.22551,1959.54643 C1235.69861,1959.54643 1235.15586,1959.66108 1234.59728,1959.88768 C1235.67837,1956.53778 1237.74418,1954.91092 1240.7934,1955.00376 C1243.05392,1955.06669 1244.1196,1956.45325 1243.98936,1959.16428" id="icon-vimeo"></path>
        </g>
    </g>
</svg>