<?xml version="1.0" encoding="UTF-8" standalone="no"?>
<svg width="22px" height="22px" viewBox="0 0 22 22" version="1.1" xmlns="http://www.w3.org/2000/svg" xmlns:xlink="http://www.w3.org/1999/xlink">
    <!-- Generator: Sketch 49.2 (51160) - http://www.bohemiancoding.com/sketch -->
    <title>icon-linkedin</title>
    <desc>Created with Sketch.</desc>
    <defs></defs>
    <g id="01_Home-Page" stroke="none" stroke-width="1" fill="none" fill-rule="evenodd">
        <g id="01-Homepage" transform="translate(-1179.000000, -1951.000000)" fill="#5E6E5E">
            <path d="M1201,1973 L1196.44584,1973 L1196.44584,1965.85446 C1196.44584,1964.14948 1196.41225,1961.95809 1194.07597,1961.95809 C1191.70326,1961.95809 1191.3412,1963.81418 1191.3412,1965.73129 L1191.3412,1973 L1186.78306,1973 L1186.78306,1958.3052 L1191.15733,1958.3052 L1191.15733,1960.31298 L1191.21938,1960.31298 C1191.82849,1959.15826 1193.316,1957.93912 1195.53387,1957.93912 C1200.1478,1957.93912 1201,1960.98186 1201,1964.93981 L1201,1973 Z M1181.64312,1956.29686 C1180.1818,1956.29686 1179,1955.10964 1179,1953.64757 C1179,1952.18722 1180.1818,1951 1181.64312,1951 C1183.10102,1951 1184.28567,1952.18722 1184.28567,1953.64757 C1184.28567,1955.10964 1183.10102,1956.29686 1181.64312,1956.29686 Z M1179.36206,1973 L1183.92361,1973 L1183.92361,1958.3052 L1179.36206,1958.3052 L1179.36206,1973 Z" id="icon-linkedin"></path>
        </g>
    </g>
</svg>