<?xml version="1.0" encoding="UTF-8" standalone="no"?>
<svg width="23px" height="23px" viewBox="0 0 23 23" version="1.1" xmlns="http://www.w3.org/2000/svg" xmlns:xlink="http://www.w3.org/1999/xlink">
    <!-- Generator: Sketch 49.2 (51160) - http://www.bohemiancoding.com/sketch -->
    <title>icon-instragram</title>
    <desc>Created with Sketch.</desc>
    <defs></defs>
    <g id="01_Home-Page" stroke="none" stroke-width="1" fill="none" fill-rule="evenodd">
        <g id="01-Homepage" transform="translate(-1042.000000, -1952.000000)" fill="#5E6E5E">
            <path d="M1058.25874,1957.36124 C1058.25874,1958.1234 1058.8766,1958.74126 1059.63872,1958.74126 C1060.40088,1958.74126 1061.01869,1958.1234 1061.01869,1957.36124 C1061.01869,1956.59908 1060.40088,1955.98126 1059.63872,1955.98126 C1058.8766,1955.98126 1058.25874,1956.59908 1058.25874,1957.36124 Z M1049.66667,1963.49998 C1049.66667,1961.3829 1051.3829,1959.66662 1053.49998,1959.66662 C1055.61706,1959.66662 1057.33333,1961.3829 1057.33333,1963.49998 C1057.33333,1965.61706 1055.61706,1967.33333 1053.49998,1967.33333 C1051.3829,1967.33333 1049.66667,1965.61706 1049.66667,1963.49998 Z M1047.5946,1963.49998 C1047.5946,1966.76144 1050.23852,1969.40536 1053.49998,1969.40536 C1056.76148,1969.40536 1059.4054,1966.76144 1059.4054,1963.49998 C1059.4054,1960.23852 1056.76148,1957.59455 1053.49998,1957.59455 C1050.23852,1957.59455 1047.5946,1960.23852 1047.5946,1963.49998 Z M1048.75856,1952.06916 C1047.53448,1952.12503 1046.69855,1952.31941 1045.96702,1952.60371 C1045.21084,1952.8976 1044.56951,1953.29078 1043.93014,1953.93014 C1043.29083,1954.56946 1042.8976,1955.21084 1042.60376,1955.96702 C1042.31945,1956.69855 1042.12503,1957.53448 1042.0692,1958.75856 C1042.01324,1959.98512 1042,1960.37674 1042,1963.49998 C1042,1966.62321 1042.01324,1967.01479 1042.0692,1968.24139 C1042.12503,1969.46548 1042.31945,1970.30141 1042.60376,1971.03294 C1042.8976,1971.78912 1043.29083,1972.43049 1043.93014,1973.06981 C1044.56951,1973.70917 1045.21084,1974.10235 1045.96702,1974.39624 C1046.69855,1974.68055 1047.53448,1974.87497 1048.75856,1974.9308 C1049.98516,1974.98676 1050.37679,1975 1053.49998,1975 C1056.62321,1975 1057.01484,1974.98676 1058.24144,1974.9308 C1059.46548,1974.87497 1060.30145,1974.68055 1061.03294,1974.39624 C1061.78916,1974.10235 1062.43049,1973.70917 1063.06981,1973.06981 C1063.70917,1972.43049 1064.10235,1971.78916 1064.39629,1971.03294 C1064.68055,1970.30141 1064.87497,1969.46548 1064.93084,1968.24139 C1064.98676,1967.01479 1065,1966.62321 1065,1963.49998 C1065,1960.37679 1064.98676,1959.98512 1064.93084,1958.75856 C1064.87497,1957.53448 1064.68055,1956.69855 1064.39629,1955.96702 C1064.10235,1955.21084 1063.70917,1954.56946 1063.06981,1953.93014 C1062.43049,1953.29078 1061.78916,1952.8976 1061.03294,1952.60371 C1060.30145,1952.31941 1059.46548,1952.12503 1058.24144,1952.06916 C1057.01484,1952.01319 1056.62321,1952 1053.49998,1952 C1050.37679,1952 1049.98516,1952.01319 1048.75856,1952.06916 Z M1058.14694,1954.13908 C1059.26823,1954.19025 1059.87714,1954.3776 1060.28237,1954.53504 C1060.81912,1954.74366 1061.20225,1954.99291 1061.60465,1955.39531 C1062.00709,1955.7977 1062.25629,1956.18084 1062.46491,1956.71758 C1062.62236,1957.12281 1062.80975,1957.73177 1062.86087,1958.85297 C1062.9162,1960.06564 1062.92793,1960.42933 1062.92793,1963.49998 C1062.92793,1966.57062 1062.9162,1966.93431 1062.86087,1968.14694 C1062.80975,1969.26818 1062.62236,1969.8771 1062.46491,1970.28233 C1062.25629,1970.81912 1062.00709,1971.20225 1061.60465,1971.60465 C1061.20225,1972.00705 1060.81912,1972.25625 1060.28237,1972.46491 C1059.87714,1972.62236 1059.26823,1972.8097 1058.14694,1972.86087 C1056.93454,1972.9162 1056.57085,1972.92789 1053.49998,1972.92789 C1050.42915,1972.92789 1050.0655,1972.9162 1048.85301,1972.86087 C1047.73177,1972.8097 1047.12286,1972.62236 1046.71763,1972.46491 C1046.18084,1972.25625 1045.79775,1972.00705 1045.39535,1971.60465 C1044.99291,1971.20225 1044.74371,1970.81912 1044.53509,1970.28233 C1044.3776,1969.8771 1044.19025,1969.26818 1044.13908,1968.14699 C1044.08375,1966.93431 1044.07207,1966.57062 1044.07207,1963.49998 C1044.07207,1960.42933 1044.08375,1960.06564 1044.13908,1958.85301 C1044.19025,1957.73177 1044.3776,1957.12281 1044.53509,1956.71758 C1044.74371,1956.18084 1044.99291,1955.7977 1045.39531,1955.39535 C1045.79775,1954.99291 1046.18084,1954.74366 1046.71763,1954.53504 C1047.12286,1954.3776 1047.73177,1954.19025 1048.85301,1954.13908 C1050.06564,1954.08375 1050.42938,1954.07207 1053.49998,1954.07207 C1056.57062,1954.07207 1056.93436,1954.08375 1058.14694,1954.13908 Z" id="icon-instragram"></path>
        </g>
    </g>
</svg>