<?xml version="1.0" encoding="UTF-8" standalone="no"?>
<svg width="24px" height="19px" viewBox="0 0 24 19" version="1.1" xmlns="http://www.w3.org/2000/svg" xmlns:xlink="http://www.w3.org/1999/xlink">
    <!-- Generator: Sketch 49.2 (51160) - http://www.bohemiancoding.com/sketch -->
    <title>icon-twitter</title>
    <desc>Created with Sketch.</desc>
    <defs></defs>
    <g id="01_Home-Page" stroke="none" stroke-width="1" fill="none" fill-rule="evenodd">
        <g id="01-Homepage" transform="translate(-1131.000000, -1955.000000)" fill="#5E6E5E">
            <path d="M1155,1957.24923 C1154.11636,1957.6313 1153.1672,1957.8889 1152.17199,1958.00473 C1153.18845,1957.41174 1153.96938,1956.47125 1154.33771,1955.35096 C1153.38501,1955.90073 1152.33137,1956.30009 1151.21043,1956.51447 C1150.31262,1955.58262 1149.03232,1955 1147.61566,1955 C1144.89744,1955 1142.69276,1957.14722 1142.69276,1959.79581 C1142.69276,1960.1727 1142.73526,1960.53922 1142.82026,1960.89017 C1138.72788,1960.68963 1135.09769,1958.77925 1132.66989,1955.87825 C1132.24666,1956.58708 1132.00406,1957.41001 1132.00406,1958.28999 C1132.00406,1959.95314 1132.87353,1961.42093 1134.19457,1962.28189 C1133.38707,1962.25596 1132.62739,1962.04158 1131.96333,1961.68198 C1131.96333,1961.70273 1131.96333,1961.72175 1131.96333,1961.74249 C1131.96333,1964.06606 1133.66155,1966.00409 1135.91227,1966.44495 C1135.49967,1966.5556 1135.06582,1966.61438 1134.61603,1966.61438 C1134.29905,1966.61438 1133.99092,1966.58326 1133.68988,1966.52793 C1134.31676,1968.43312 1136.13539,1969.81965 1138.28872,1969.85769 C1136.60466,1971.14568 1134.48144,1971.91156 1132.17406,1971.91156 C1131.77739,1971.91156 1131.38427,1971.88908 1131,1971.84413 C1133.17812,1973.20473 1135.76706,1974 1138.54726,1974 C1147.60503,1974 1152.55803,1966.69045 1152.55803,1960.3525 C1152.55803,1960.14504 1152.55272,1959.93758 1152.54386,1959.73185 C1153.50542,1959.05587 1154.33948,1958.21046 1155,1957.24923" id="icon-twitter"></path>
        </g>
    </g>
</svg>