<?xml version="1.0" encoding="UTF-8"?>
<svg width="108px" height="30px" viewBox="0 0 108 30" version="1.1" xmlns="http://www.w3.org/2000/svg" xmlns:xlink="http://www.w3.org/1999/xlink">
    <!-- Generator: Sketch 49.3 (51167) - http://www.bohemiancoding.com/sketch -->
    <title>Driven wordmark Copy</title>
    <desc>Created with Sketch.</desc>
    <defs></defs>
    <g id="01_Home-Page" stroke="none" stroke-width="1" fill="none" fill-rule="evenodd">
        <g id="01-Homepage" transform="translate(-70.000000, -1945.000000)" fill="#5E6E5E">
            <g id="Driven-wordmark-Copy" transform="translate(70.000000, 1945.000000)">
                <path d="M35.2970798,13.4788561 C31.8120108,13.4788561 29.9904128,15.8687076 29.9904128,19.0568636 L29.9904128,29 L25,29 L25,9.26763047 L29.1994471,9.26763047 L29.6343792,12.2258013 C30.583472,9.94967693 33.0403846,9 35.4552069,9 C35.9692026,9 36.4858393,9.0378036 37,9.11594157 L37,13.6683486 C36.44639,13.5546214 35.8506898,13.4788561 35.2970798,13.4788561" id="Fill-4"></path>
                <polygon id="Fill-9" points="40 29 45 29 45 9 40 9"></polygon>
                <path d="M45.9037692,2.991105 C45.9037692,1.405755 44.5848462,0.119655 42.9585385,0.119655 C41.3325385,0.119655 40.0136154,1.405755 40.0136154,2.991105 C40.0136154,4.576605 41.3325385,5.862705 42.9585385,5.862705 C44.5848462,5.862705 45.9037692,4.576605 45.9037692,2.991105" id="Fill-6"></path>
                <polygon id="Fill-11" points="62.9799291 9 58.1955187 23.075125 53.1340897 9 48 9 55.5093461 29 60.6849562 29 68 9"></polygon>
                <path d="M86.9524849,21.0003435 L73.8007202,21.0003435 C73.7629106,22.5390012 74.2914577,24.0010306 75.2349655,24.9228144 C75.9167992,25.575758 76.860307,26.1541574 78.1461495,26.1541574 C79.5071386,26.1541574 80.3376902,25.8854774 81.0193663,25.1916547 C81.434642,24.7692372 81.7742986,24.2313964 81.9630316,23.4992595 L86.4995571,23.4992595 C86.3862857,24.6922883 85.5911807,26.2694204 84.8362484,27.1912043 C83.1732549,29.1909142 80.7175194,30 78.2216112,30 C75.539333,30 73.5741775,29.037337 72.0242978,27.5393981 C70.0592998,25.6140722 69,22.8078415 69,19.5383141 C69,16.3455754 69.9460284,13.5010306 71.8355647,11.5396348 C73.3076196,10.0009771 75.4260617,9 78.1083399,9 C81.0193663,9 83.6638348,10.1930288 85.2891763,12.6921051 C86.7260998,14.886111 87.0657563,17.1546612 86.990137,19.6535772 C86.990137,19.6535772 86.9524849,20.5777657 86.9524849,21.0003435 M81.0571759,14.0002366 C80.4131519,13.3088186 79.4318344,12.8456823 78.0705302,12.8456823 C76.6339218,12.8456823 75.4637138,13.4625561 74.7820377,14.38434 C74.1027246,15.2702144 73.8007202,16.1919982 73.7629106,17.5002901 L82.265036,17.5002901 C82.2272264,15.9999466 81.8119506,14.8476366 81.0571759,14.0002366" id="Fill-12"></path>
                <path d="M103.202836,29 L103.202836,17.0289368 C103.202836,14.7405858 102.43639,13.3517773 99.9024161,13.3517773 C98.2139,13.3517773 97.1026174,14.4033551 96.4486113,15.8298596 C95.758938,17.3663239 95.7973243,19.3947132 95.7973243,21.0458296 L95.7973243,29 L91,29 L91,9.48707621 L95.0286392,9.48707621 L95.375715,12.0001955 C96.5636102,9.93676925 98.9443587,9 101.246096,9 C105.504413,9 108,11.9252727 108,15.9797052 L108,29 L103.202836,29 Z" id="Fill-13"></path>
                <path d="M17.8585567,25.1022842 C16.0915791,26.9583368 13.4231687,27.9821263 10.3772284,27.9821263 L-6.26865672e-05,27.9821263 L-6.26865672e-05,1.12533684 L10.3772284,1.12533684 C13.4231687,1.12533684 16.0915791,2.1466 17.8585567,4.00265263 C20.6042284,6.8446 20.9797209,10.8216526 20.9797209,14.5336 C20.9797209,18.2457053 20.6042284,22.2603368 17.8585567,25.1022842 M14.1366985,7.03375789 C13.2330716,6.12365263 11.9190045,5.51828421 10.3772284,5.51828421 L4.85062388,5.51828421 L4.85062388,23.5866526 L10.3772284,23.5866526 C11.9190045,23.5866526 13.2330716,22.9814421 14.1366985,22.0713368 C16.0163552,20.1773895 16.0538104,16.9948632 16.0538104,14.5336 C16.0538104,12.0723368 16.0163552,8.92770526 14.1366985,7.03375789" id="Fill-1"></path>
            </g>
        </g>
    </g>
</svg>