<?xml version="1.0" encoding="UTF-8"?>
<svg width="108px" height="29px" viewBox="0 0 108 29" version="1.1" xmlns="http://www.w3.org/2000/svg" xmlns:xlink="http://www.w3.org/1999/xlink">
    <!-- Generator: Sketch 49.3 (51167) - http://www.bohemiancoding.com/sketch -->
    <title>Wordmark</title>
    <desc>Created with Sketch.</desc>
    <defs></defs>
    <g id="01_Home-Page" stroke="none" stroke-width="1" fill="none" fill-rule="evenodd">
        <g id="01-Homepage" transform="translate(-70.000000, -31.000000)" fill="#E7E2DD">
            <path d="M173.238612,59.5059606 L173.238612,47.3909946 C173.238612,45.0751356 172.477882,43.6696324 169.962805,43.6696324 C168.286882,43.6696324 167.183887,44.7338512 166.534758,46.1775035 C165.850228,47.7324374 165.888328,49.7852098 165.888328,51.4561741 L165.888328,59.5059606 L161.126781,59.5059606 L161.126781,39.7584743 L165.125376,39.7584743 L165.469863,42.3018035 C166.648899,40.213573 169.011893,39.265543 171.296464,39.265543 C175.523024,39.265543 178,42.2259801 178,46.3291503 L178,59.5059606 L173.238612,59.5059606 Z M157.404411,51.1134649 L144.151486,51.1134649 C144.113544,52.6327824 144.646151,54.0764348 145.596904,54.9866322 C146.283974,55.6313687 147.234728,56.2026561 148.530287,56.2026561 C149.901887,56.2026561 150.738817,55.937195 151.425728,55.2520933 C151.844034,54.8349854 152.186458,54.3040633 152.37664,53.5809707 L156.948005,53.5809707 C156.833864,54.759162 156.032653,56.3164703 155.271923,57.2266678 C153.596158,59.201084 151.121563,60 148.606487,60 C145.903609,60 143.923362,59.0494372 142.36158,57.5703267 C140.381332,55.6693595 139.314056,52.8984018 139.314056,49.6698126 C139.314056,46.5172051 140.26735,43.7084148 142.171397,41.7718311 C143.654757,40.2523553 145.789468,39.26396 148.492345,39.26396 C151.425728,39.26396 154.090505,40.441993 155.728329,42.9096571 C157.176129,45.0762437 157.518552,47.316121 157.442352,49.7836268 C157.442352,49.7836268 157.404411,50.696357 157.404411,51.1134649 Z M151.463828,44.2013461 C150.814858,43.5187771 149.826004,43.0613039 148.454245,43.0613039 C147.006604,43.0613039 145.827409,43.6705822 145.140498,44.5807797 C144.455809,45.4553607 144.151486,46.3655582 144.113544,47.6574055 L152.680964,47.6574055 C152.642864,46.1759206 152.224399,45.0382529 151.463828,44.2013461 Z M138.214236,39.7586325 L131.054294,59.5062772 L125.988423,59.5062772 L118.638298,39.7586325 L123.663529,39.7586325 L128.61764,53.656161 L133.300606,39.7586325 L138.214236,39.7586325 Z M110.321704,59.5067521 L115.159292,59.5067521 L115.159292,39.7592657 L110.321704,39.7592657 L110.321704,59.5067521 Z M115.779529,34.0302453 C115.779529,35.7034257 114.418565,37.0604906 112.740419,37.0604906 C111.06259,37.0604906 109.701626,35.7034257 109.701626,34.0302453 C109.701626,32.3570649 111.06259,31 112.740419,31 C114.418565,31 115.779529,32.3570649 115.779529,34.0302453 Z M105.018819,43.9741924 C101.666813,43.9741924 99.9148483,46.3658748 99.9148483,49.5564732 L99.9148483,59.507227 L95.1153598,59.507227 L95.1153598,39.7597406 L99.1541183,39.7597406 L99.5725833,42.7201777 C100.485396,40.4423096 102.848389,39.4917468 105.170902,39.4917468 C105.665249,39.4917468 106.162137,39.5297377 106.656643,39.6079355 L106.656643,44.1638301 C106.124037,44.0500158 105.551108,43.9741924 105.018819,43.9741924 Z M88.0903552,56.6200806 C86.3002903,58.4806825 83.597413,59.507227 80.5119481,59.507227 L70,59.507227 L70,32.5821607 L80.5119481,32.5821607 C83.597413,32.5821607 86.3002903,33.6061724 88.0903552,35.4669327 C90.8714963,38.3160883 91.25202,42.3030698 91.25202,46.0245903 C91.25202,49.7461109 90.8714963,53.770925 88.0903552,56.6200806 Z M84.3202017,38.5057259 C83.4048492,37.593154 82.0735718,36.9862502 80.5119481,36.9862502 L74.9136297,36.9862502 L74.9136297,55.1006048 L80.5119481,55.1006048 C82.0735718,55.1006048 83.4048492,54.4938592 84.3202017,53.5812873 C86.2242491,51.6825362 86.2621903,48.4920962 86.2621903,46.0245903 C86.2621903,43.5569262 86.2242491,40.4043187 84.3202017,38.5057259 Z" id="Wordmark"></path>
        </g>
    </g>
</svg>